<?xml version="1.0" encoding="utf-8" ?><svg xmlns="http://www.w3.org/2000/svg" xmlns:xlink="http://www.w3.org/1999/xlink" width="1024" height="1024" viewBox="0 0 1024 1024"><path fill="#3F5458" d="M293.543 377.411C278.892 376.607 269.843 375.808 258.968 363.98C238.398 341.609 249.321 296.962 280.868 291.873C287.978 290.726 298.417 291.548 305.968 291.8C313.545 291.979 321.123 292.06 328.701 292.044C371.885 292.239 415.867 293.427 458.991 292.528C464.661 291.922 471.209 291.98 476.972 291.889L477.873 292.066C484.972 293.429 493.361 293.081 500.713 293.086L535.78 293.059C548.762 293.029 567.852 291.822 579.835 295.92C610.62 306.449 614.324 352.336 587.897 369.749C580.485 374.694 572.976 376.543 564.168 377.192C564.602 389.164 564.413 402.235 564.48 414.282L564.955 463.79C565.014 473.318 564.716 482.803 564.617 492.32C564.599 493.993 565.161 496.294 566.44 497.556L567.266 497.684C572.922 491.833 580.743 479.241 585.436 472.001C593.963 459.041 602.34 445.982 610.565 432.828C628.557 404.586 647.836 376.529 666.21 348.452C674.444 335.869 684.796 318.904 695.284 308.421C701.673 302.036 711.874 297.761 721.052 297.634C725.369 297.535 729.652 298.425 733.573 300.235C739.051 302.784 744.708 307.142 749.744 310.562C756.182 314.935 762.575 319.553 768.9 324.097C770.084 324.948 771.574 325.364 772.787 326.182C780.266 331.945 788.53 336.383 795.358 342.9C802.737 349.944 804.647 360.313 805.038 370.062C805.25 375.356 801.656 382.322 798.847 386.822C787.684 404.709 775.584 422.125 764.067 439.811L675.86 573.363C667.272 586.182 658.795 599.074 650.428 612.038C643.205 623.244 632.917 640.85 624.04 649.577C618.714 654.813 605.683 664.117 599.317 668.852L557.457 700.066C541.845 711.944 526.337 723.959 510.936 736.11C500.854 744.024 490.824 752.001 480.388 759.376C473.905 763.957 462.413 763.195 465.553 752.759C472.933 728.235 480.923 704.285 487.947 679.611C439.303 679.46 390.661 678.974 342.025 678.155L305.305 678.105C295.614 678.092 285.019 678.391 275.516 676.663C256.779 673.255 247.155 651.607 247.368 634.378C247.602 622.88 252.374 611.94 260.643 603.945C270.381 594.617 279.722 593.326 292.547 593.597C292.17 561.32 292.062 529.041 292.221 496.763C293 456.984 293.44 417.198 293.543 377.411Z"/><path fill="#EAEAE9" d="M310.953 378.994L548.998 378.503C548.767 387.146 548.614 395.791 548.537 404.436L548.519 423.608C548.616 434.694 548.614 445.781 548.514 456.867C548.521 463.248 548.664 470.114 548.53 476.452C548.8 488.448 549.086 498.937 548.529 510.958C548.742 517.617 548.417 523.497 546.398 529.941C540.859 541.485 529.717 553.093 523.042 564.179C517.754 572.961 516.41 583.743 511.926 592.903C504.424 593.828 492.955 593.614 485.089 593.712C466.151 593.889 447.213 593.936 428.274 593.853C399.103 594.146 369.93 594.098 340.761 593.707C331.197 593.523 320.357 593.696 310.979 593.01C310.962 585.883 311.137 577.809 310.896 570.764C309.979 565.626 310.417 549.427 310.49 543.348C311.439 534.017 310.992 519.386 310.961 509.675L311.001 489.974C311.041 480.908 310.999 471.842 310.874 462.777C309.853 458.461 310.047 439.966 310.732 435.916C311.263 431.93 311.005 420.663 311.001 416.184L310.953 378.994Z"/><path fill="#EAEAE9" d="M310.953 378.994L548.998 378.503C548.767 387.146 548.614 395.791 548.537 404.436L548.519 423.608C548.616 434.694 548.614 445.781 548.514 456.867C528.785 458.252 509.323 461.618 489.694 464.681C432.582 473.592 375.093 480.563 317.958 489.426C315.888 489.747 313.084 489.894 311.001 489.974C311.041 480.908 310.999 471.842 310.874 462.777C309.853 458.461 310.047 439.966 310.732 435.916C311.263 431.93 311.005 420.663 311.001 416.184L310.953 378.994Z"/><path fill="#EAEAE9" d="M310.953 378.994L548.998 378.503C548.767 387.146 548.614 395.791 548.537 404.436C525.871 406.134 497.096 411.393 474.014 414.858L367.027 430.107C360.213 431.098 313.578 439.502 311.018 437.994L310.732 435.916C311.263 431.93 311.005 420.663 311.001 416.184L310.953 378.994Z"/><path fill="#4A9487" d="M310.732 435.916L311.018 437.994C313.578 439.502 360.213 431.098 367.027 430.107L474.014 414.858C497.096 411.393 525.871 406.134 548.537 404.436L548.519 423.608L435.349 439.628C396.602 444.807 357.94 449.689 319.416 456.378C316.814 456.83 313.921 456.885 311.552 458.021C310.479 459.877 310.889 460.261 310.874 462.777C309.853 458.461 310.047 439.966 310.732 435.916Z"/><path fill="#EAEAE9" d="M548.514 456.867C548.521 463.248 548.664 470.114 548.53 476.452C548.8 488.448 549.086 498.937 548.529 510.958C542.068 511.764 535.598 512.483 529.137 513.278C504.029 516.369 479.08 520.875 454.063 524.616C416.055 530.335 377.998 535.733 339.898 540.809C334.769 541.497 314.647 546.35 311.09 544.465L310.49 543.348C311.439 534.017 310.992 519.386 310.961 509.675L311.001 489.974C313.084 489.894 315.888 489.747 317.958 489.426C375.093 480.563 432.582 473.592 489.694 464.681C509.323 461.618 528.785 458.252 548.514 456.867Z"/><path fill="#4A9487" d="M548.514 456.867C548.521 463.248 548.664 470.114 548.53 476.452C537.348 476.565 520.111 479.53 508.859 481.244C492.002 483.822 475.128 486.289 458.239 488.646L349.462 504.187C338.059 505.889 321.79 507.662 310.961 509.675L311.001 489.974C313.084 489.894 315.888 489.747 317.958 489.426C375.093 480.563 432.582 473.592 489.694 464.681C509.323 461.618 528.785 458.252 548.514 456.867Z"/><path fill="#4A9487" d="M310.49 543.348L311.09 544.465C314.647 546.35 334.769 541.497 339.898 540.809C377.998 535.733 416.055 530.335 454.063 524.616C479.08 520.875 504.029 516.369 529.137 513.278C535.598 512.483 542.068 511.764 548.529 510.958C548.742 517.617 548.417 523.497 546.398 529.941L426.787 547.54C400.408 551.545 374.129 555.52 347.795 559.825C336.606 561.654 322.383 561.733 310.893 563.422C310.904 565.802 310.974 568.405 310.896 570.764C309.979 565.626 310.417 549.427 310.49 543.348Z"/><path fill="#4A9487" d="M289.792 310.204C292.776 309.849 300.201 309.941 303.374 309.937L328.636 309.986C355.711 309.909 382.786 310.01 409.859 310.288L509.697 310.954C529.241 311.077 548.731 311.383 568.324 311.884C579.095 311.585 587.512 318.226 588.518 329.517C590.126 347.545 580.485 356.848 563.619 358.906C507.533 361.225 448.973 359.511 392.667 359.565C369.779 359.684 346.891 359.677 324.003 359.544C310.614 359.523 296.771 359.764 283.425 358.711C279.851 358.544 277.34 357.128 274.513 354.942C263.553 346.466 261.728 328.647 270.695 318.088C275.749 312.137 282.51 310.84 289.792 310.204Z"/><path fill="#4A9487" d="M432.724 610.748C454.959 610.666 486.481 609.568 507.948 610.975C506.599 618.766 503.133 627.212 500.808 634.889C498.051 643.986 496.575 654.081 491.914 662.347C486.698 663.447 477.517 663.167 471.876 663.146L444.312 663.056L339.939 662.994C329.556 662.822 319.172 662.71 308.787 662.659C297.999 662.643 280.222 664.219 272.067 656.5C258.039 643.65 261.819 614.415 283.102 612.223C297.494 610.741 313.502 611.51 328.061 611.388L432.724 610.748Z"/><path fill="#4A9487" d="M716.153 400.688C732.129 408.869 738.381 414.896 752.686 424.669L654.719 572.751C647.462 583.625 640.125 594.467 632.93 605.377C626.772 614.713 621.694 624.375 614.113 632.711L613.291 632.918C607.088 631.729 584.179 615.509 578.356 611.436C581.305 605.837 586.404 598.632 590.034 593.245L610.38 563.006C623.381 543.317 635.509 522.292 648.692 502.961L683.861 451.574C695.477 434.56 706.312 418.804 716.153 400.688Z"/><path fill="#4A9487" d="M672.775 371.29C682.262 373.571 696.514 384.629 703.271 391.526C694.679 404.263 686.065 418.583 677.452 431.712L597.446 553.591C593.15 560.137 568.428 599.297 564.845 601.875C557.234 598.208 540.688 584.765 533.057 579.039C535.239 575.022 540.463 567.83 543.156 563.88C548.681 555.756 554.154 547.598 559.575 539.404C579.639 508.986 599.92 478.712 620.416 448.584C631.347 432.607 642.16 416.55 652.853 400.413C657.766 392.993 667.555 377.305 672.775 371.29Z"/><path fill="#4A9487" d="M719.496 317.102C730.307 316.044 744.117 330.889 753.049 336.316C762.12 341.978 772.966 346.393 780.791 353.858C785.97 358.799 788.252 368.501 785.031 375.056C778.911 387.511 770.439 399.552 762.586 411.008L756.133 406.077C748.752 400.194 740.212 396.393 732.765 391.024C716.56 379.342 698.378 368.094 682.79 355.725C685.893 350.095 690.29 344.952 694.009 339.688C701.564 328.991 705.466 319.993 719.496 317.102Z"/><path fill="#EAEAE9" d="M529.899 596.653C542.978 604.558 554.178 614.843 566.668 623.223C578.826 631.38 589.094 637.662 600.791 646.731C595.963 650.739 588.346 655.607 583.009 659.381C574.926 665.208 566.893 671.104 558.91 677.066C550.446 683.04 542.086 689.161 533.834 695.426L506.641 675.175C511.584 655.403 518.022 636.337 524.205 616.945C526.334 610.27 528.541 603.532 529.899 596.653Z"/><path fill="#4A9487" d="M458.991 292.528C454.387 280.808 457.602 263.499 461.648 252.038C472.01 222.684 497.071 204.009 526.837 196.965C577.141 185.061 622.449 215.944 667.503 233.037C702.645 246.369 737.822 246.834 767.142 220.547C773.484 214.874 779.249 206.754 786.815 202.611C794.324 200.98 799.978 210.337 795.952 216.375C781.694 237.757 751.191 256.425 725.872 259.572C695.564 263.338 660.743 251.084 633.66 238.691C598.785 222.733 562.79 203.5 523.544 216.48C506.196 222.04 489.355 233.607 481.216 250.353C474.874 263.401 472.401 277.931 476.972 291.889C471.209 291.98 464.661 291.922 458.991 292.528Z"/></svg>